{
    "asset" : {
        "generator" : "Khronos glTF Blender I/O v1.6.16",
        "version" : "2.0"
    },
    "scene" : 0,
    "scenes" : [
        {
            "name" : "Scene",
            "nodes" : [
                0,
                1,
                2,
                3,
                4
            ]
        }
    ],
    "nodes" : [
        {
            "name" : "Camera",
            "rotation" : [
                0.7071068286895752,
                0,
                0,
                0.7071067094802856
            ],
            "translation" : [
                -0.28585848212242126,
                29.729097366333008,
                189.32687377929688
            ]
        },
        {
            "name" : "Point",
            "rotation" : [
                -0.4170381724834442,
                0,
                -0.3534083366394043,
                0.8373661041259766
            ],
            "translation" : [
                163.88011169433594,
                146.67437744140625,
                -170.70846557617188
            ]
        },
        {
            "name" : "Point.001",
            "rotation" : [
                -0.12133026123046875,
                -0.27831965684890747,
                -0.6616529822349548,
                0.6855891346931458
            ],
            "translation" : [
                163.88011169433594,
                146.67437744140625,
                46.76585388183594
            ]
        },
        {
            "name" : "Point.002",
            "rotation" : [
                0.3997669816017151,
                -0.6077251434326172,
                0.22947250306606293,
                0.6466830372810364
            ],
            "translation" : [
                -135.5758514404297,
                146.67437744140625,
                46.76585388183594
            ]
        },
        {
            "mesh" : 0,
            "name" : "tshirt"
        }
    ],
    "materials" : [
        {
            "doubleSided" : true,
            "name" : "ShirtColor",
            "pbrMetallicRoughness" : {
                "baseColorFactor" : [
                    0.001035238616168499,
                    0,
                    1,
                    1
                ],
                "metallicFactor" : 0,
                "roughnessFactor" : 0.5
            }
        }
    ],
    "meshes" : [
        {
            "name" : "shirt",
            "primitives" : [
                {
                    "attributes" : {
                        "POSITION" : 0,
                        "NORMAL" : 1,
                        "TEXCOORD_0" : 2
                    },
                    "indices" : 3,
                    "material" : 0
                }
            ]
        }
    ],
    "accessors" : [
        {
            "bufferView" : 0,
            "componentType" : 5126,
            "count" : 3689,
            "max" : [
                36.464786529541016,
                57.711463928222656,
                14.604619979858398
            ],
            "min" : [
                -36.464786529541016,
                0.16332244873046875,
                -11.394796371459961
            ],
            "type" : "VEC3"
        },
        {
            "bufferView" : 1,
            "componentType" : 5126,
            "count" : 3689,
            "type" : "VEC3"
        },
        {
            "bufferView" : 2,
            "componentType" : 5126,
            "count" : 3689,
            "type" : "VEC2"
        },
        {
            "bufferView" : 3,
            "componentType" : 5123,
            "count" : 20160,
            "type" : "SCALAR"
        }
    ],
    "bufferViews" : [
        {
            "buffer" : 0,
            "byteLength" : 44268,
            "byteOffset" : 0
        },
        {
            "buffer" : 0,
            "byteLength" : 44268,
            "byteOffset" : 44268
        },
        {
            "buffer" : 0,
            "byteLength" : 29512,
            "byteOffset" : 88536
        },
        {
            "buffer" : 0,
            "byteLength" : 40320,
            "byteOffset" : 118048
        }
    ],
    "buffers" : [
        {
            "byteLength" : 158368,
            "uri" : "data:application/octet-stream;base64,"
        }
    ]
}
